<?xml version="1.0"?><svg xmlns="http://www.w3.org/2000/svg"  viewBox="0 0 24 24" width="480px" height="480px">    <path d="M 7 2 L 7 4 L 17 4 L 17 2 L 7 2 z M 7 5 L 7 9.8847656 C 7 10.705619 7.5066753 11.44785 8.2714844 11.746094 L 15 14.375 L 15 15.980469 L 12 18.089844 L 9 15.980469 L 9 14 L 7 14 L 7 15.980469 C 7 16.629571 7.3181655 17.242987 7.8496094 17.617188 L 11 19.832031 L 11 21 A 1.0001 1.0001 0 1 0 13 21 L 13 19.832031 L 16.148438 17.617188 C 16.682094 17.243428 17 16.629577 17 15.980469 L 17 14.373047 C 17 13.553288 16.493526 12.810551 15.728516 12.511719 L 9 9.8828125 L 9 7 L 15 7 L 15 10 L 17 10 L 17 5 L 7 5 z"/></svg>